# xmcd CD database file
#
# Track frame offsets:
#	150
#	54830
#	80000
#	102067
#	153250
#	186737
#
# Disc length: 2752 seconds
#
# Revision: 0
# Processed by: cddbd v1.5.1PL0 Copyright (c) Steve Scherf et al.
# Submitted via: CDex 1.51
#
DISCID=440abe06
DTITLE=Grabowsky, Costello, Browne - Six By Three
DYEAR=1989
DGENRE=Jazz
TTITLE0=Three Myths
TTITLE1=No Inadequate Words
TTITLE2=Colonial Sketch No. 1
TTITLE3=Happy Go Lucky Country
TTITLE4=Ballad in Search of a Title
TTITLE5=Thrid Generation
EXTD=YEAR: 1989
EXTT0=
EXTT1=
EXTT2=
EXTT3=
EXTT4=
EXTT5=
PLAYORDER=
